<mxfile host="app.diagrams.net" agent="Mozilla/5.0 (Windows NT 10.0; Win64; x64) AppleWebKit/537.36 (KHTML, like Gecko) Chrome/140.0.0.0 Safari/537.36" version="28.2.4">
  <diagram name="Página-1" id="4iUnGPk8eX9eYoRPvFoH">
    <mxGraphModel dx="1426" dy="777" grid="1" gridSize="10" guides="1" tooltips="1" connect="1" arrows="1" fold="1" page="1" pageScale="1" pageWidth="827" pageHeight="1169" math="0" shadow="0">
      <root>
        <mxCell id="0" />
        <mxCell id="1" parent="0" />
        <mxCell id="dbXYkPXYevpdWX7WdQCM-70" value="" style="edgeStyle=orthogonalEdgeStyle;rounded=0;orthogonalLoop=1;jettySize=auto;html=1;" edge="1" parent="1" source="iD5cl9piEalMS1e9P42m-1" target="dbXYkPXYevpdWX7WdQCM-69">
          <mxGeometry relative="1" as="geometry" />
        </mxCell>
        <mxCell id="iD5cl9piEalMS1e9P42m-1" value="Inicio" style="ellipse;whiteSpace=wrap;html=1;fillColor=#6a00ff;strokeColor=#3700CC;fontColor=#ffffff;" parent="1" vertex="1">
          <mxGeometry x="354" y="60" width="119" height="90" as="geometry" />
        </mxCell>
        <mxCell id="dbXYkPXYevpdWX7WdQCM-72" value="" style="edgeStyle=orthogonalEdgeStyle;rounded=0;orthogonalLoop=1;jettySize=auto;html=1;" edge="1" parent="1" source="dbXYkPXYevpdWX7WdQCM-69" target="dbXYkPXYevpdWX7WdQCM-71">
          <mxGeometry relative="1" as="geometry" />
        </mxCell>
        <mxCell id="dbXYkPXYevpdWX7WdQCM-69" value="Pedir N" style="shape=parallelogram;perimeter=parallelogramPerimeter;whiteSpace=wrap;html=1;fixedSize=1;fillColor=#e51400;fontColor=#ffffff;strokeColor=#B20000;" vertex="1" parent="1">
          <mxGeometry x="337" y="180" width="154" height="60" as="geometry" />
        </mxCell>
        <mxCell id="dbXYkPXYevpdWX7WdQCM-74" value="" style="edgeStyle=orthogonalEdgeStyle;rounded=0;orthogonalLoop=1;jettySize=auto;html=1;" edge="1" parent="1" source="dbXYkPXYevpdWX7WdQCM-71" target="dbXYkPXYevpdWX7WdQCM-73">
          <mxGeometry relative="1" as="geometry" />
        </mxCell>
        <mxCell id="dbXYkPXYevpdWX7WdQCM-77" value="" style="edgeStyle=orthogonalEdgeStyle;rounded=0;orthogonalLoop=1;jettySize=auto;html=1;" edge="1" parent="1" source="dbXYkPXYevpdWX7WdQCM-71" target="dbXYkPXYevpdWX7WdQCM-76">
          <mxGeometry relative="1" as="geometry" />
        </mxCell>
        <mxCell id="dbXYkPXYevpdWX7WdQCM-78" value="Não" style="edgeLabel;html=1;align=center;verticalAlign=middle;resizable=0;points=[];" vertex="1" connectable="0" parent="dbXYkPXYevpdWX7WdQCM-77">
          <mxGeometry x="0.5273" relative="1" as="geometry">
            <mxPoint as="offset" />
          </mxGeometry>
        </mxCell>
        <mxCell id="dbXYkPXYevpdWX7WdQCM-71" value="N&amp;gt;0" style="rhombus;whiteSpace=wrap;html=1;fillColor=#e51400;strokeColor=#B20000;fontColor=#ffffff;" vertex="1" parent="1">
          <mxGeometry x="362" y="270" width="104" height="100" as="geometry" />
        </mxCell>
        <mxCell id="dbXYkPXYevpdWX7WdQCM-86" style="edgeStyle=orthogonalEdgeStyle;rounded=0;orthogonalLoop=1;jettySize=auto;html=1;" edge="1" parent="1" source="dbXYkPXYevpdWX7WdQCM-73" target="dbXYkPXYevpdWX7WdQCM-85">
          <mxGeometry relative="1" as="geometry" />
        </mxCell>
        <mxCell id="dbXYkPXYevpdWX7WdQCM-73" value="Escrever &quot;N é Positivo&quot;" style="shape=parallelogram;perimeter=parallelogramPerimeter;whiteSpace=wrap;html=1;fixedSize=1;fillColor=#e51400;strokeColor=#B20000;fontColor=#ffffff;" vertex="1" parent="1">
          <mxGeometry x="491" y="290" width="120" height="60" as="geometry" />
        </mxCell>
        <mxCell id="dbXYkPXYevpdWX7WdQCM-75" value="Sim" style="text;html=1;align=center;verticalAlign=middle;resizable=0;points=[];autosize=1;strokeColor=none;fillColor=none;" vertex="1" parent="1">
          <mxGeometry x="460" y="298" width="40" height="30" as="geometry" />
        </mxCell>
        <mxCell id="dbXYkPXYevpdWX7WdQCM-82" value="" style="edgeStyle=orthogonalEdgeStyle;rounded=0;orthogonalLoop=1;jettySize=auto;html=1;" edge="1" parent="1" source="dbXYkPXYevpdWX7WdQCM-76" target="dbXYkPXYevpdWX7WdQCM-81">
          <mxGeometry relative="1" as="geometry" />
        </mxCell>
        <mxCell id="dbXYkPXYevpdWX7WdQCM-84" value="" style="edgeStyle=orthogonalEdgeStyle;rounded=0;orthogonalLoop=1;jettySize=auto;html=1;" edge="1" parent="1" source="dbXYkPXYevpdWX7WdQCM-76" target="dbXYkPXYevpdWX7WdQCM-83">
          <mxGeometry relative="1" as="geometry" />
        </mxCell>
        <mxCell id="dbXYkPXYevpdWX7WdQCM-76" value="N=0" style="rhombus;whiteSpace=wrap;html=1;fillColor=#e51400;strokeColor=#B20000;fontColor=#ffffff;" vertex="1" parent="1">
          <mxGeometry x="230" y="270" width="104" height="100" as="geometry" />
        </mxCell>
        <mxCell id="dbXYkPXYevpdWX7WdQCM-88" style="edgeStyle=orthogonalEdgeStyle;rounded=0;orthogonalLoop=1;jettySize=auto;html=1;exitX=0.5;exitY=1;exitDx=0;exitDy=0;entryX=0;entryY=0.5;entryDx=0;entryDy=0;" edge="1" parent="1" source="dbXYkPXYevpdWX7WdQCM-81" target="dbXYkPXYevpdWX7WdQCM-85">
          <mxGeometry relative="1" as="geometry" />
        </mxCell>
        <mxCell id="dbXYkPXYevpdWX7WdQCM-81" value="Escrever &quot;N é Negativo&quot;" style="shape=parallelogram;perimeter=parallelogramPerimeter;whiteSpace=wrap;html=1;fixedSize=1;fillColor=#e51400;strokeColor=#B20000;fontColor=#ffffff;" vertex="1" parent="1">
          <mxGeometry x="90" y="290" width="120" height="60" as="geometry" />
        </mxCell>
        <mxCell id="dbXYkPXYevpdWX7WdQCM-87" style="edgeStyle=orthogonalEdgeStyle;rounded=0;orthogonalLoop=1;jettySize=auto;html=1;exitX=0.5;exitY=1;exitDx=0;exitDy=0;entryX=0;entryY=0.5;entryDx=0;entryDy=0;" edge="1" parent="1" source="dbXYkPXYevpdWX7WdQCM-83" target="dbXYkPXYevpdWX7WdQCM-85">
          <mxGeometry relative="1" as="geometry" />
        </mxCell>
        <mxCell id="dbXYkPXYevpdWX7WdQCM-83" value="Escrever &quot;Digitou 0-Vai sair do programar" style="shape=parallelogram;perimeter=parallelogramPerimeter;whiteSpace=wrap;html=1;fixedSize=1;fillColor=#e51400;strokeColor=#B20000;fontColor=#ffffff;" vertex="1" parent="1">
          <mxGeometry x="183" y="390" width="198" height="60" as="geometry" />
        </mxCell>
        <mxCell id="dbXYkPXYevpdWX7WdQCM-85" value="Fim" style="ellipse;whiteSpace=wrap;html=1;fillColor=#6a00ff;strokeColor=#3700CC;fontColor=#ffffff;" vertex="1" parent="1">
          <mxGeometry x="491" y="470" width="119" height="90" as="geometry" />
        </mxCell>
      </root>
    </mxGraphModel>
  </diagram>
</mxfile>
